<?xml version="1.0" encoding="utf-8"?><!DOCTYPE svg PUBLIC "-//W3C//DTD SVG 1.1//EN" "http://www.w3.org/Graphics/SVG/1.1/DTD/svg11.dtd"><svg xmlns:xlink="http://www.w3.org/1999/xlink" xmlns="http://www.w3.org/2000/svg" id="map" viewBox="0 0 222 222" width="3000" height="3000" data-dot="6"><rect x="0" y="0" height="222" width="222" fill="#ffffff"/><defs/><g fill="#000000"><rect x="24" y="180" width="18" height="18" transform="rotate(-90,33,189)"/><path clip-rule="evenodd" class="svgeye" d="M 12 168v 42h 42v -42zM 18 174h 30v 30h -30z" transform="rotate(-90,33,189)"/><rect x="180" y="24" width="18" height="18" transform="rotate(90,189,33)"/><path clip-rule="evenodd" class="svgeye" d="M 168 12v 42h 42v -42zM 174 18h 30v 30h -30z" transform="rotate(90,189,33)"/><rect x="24" y="24" width="18" height="18" transform="rotate(0,33,33)"/><path clip-rule="evenodd" class="svgeye" d="M 12 12v 42h 42v -42zM 18 18h 30v 30h -30z" transform="rotate(0,33,33)"/><rect x="90" y="12" width="6" height="6" transform="rotate(0,93,15)"/><rect x="96" y="12" width="6" height="6" transform="rotate(0,99,15)"/><rect x="102" y="12" width="6" height="6" transform="rotate(0,105,15)"/><rect x="108" y="12" width="6" height="6" transform="rotate(0,111,15)"/><rect x="120" y="12" width="6" height="6" transform="rotate(0,123,15)"/><rect x="132" y="12" width="6" height="6" transform="rotate(0,135,15)"/><rect x="138" y="12" width="6" height="6" transform="rotate(0,141,15)"/><rect x="150" y="12" width="6" height="6" transform="rotate(0,153,15)"/><rect x="66" y="18" width="6" height="6" transform="rotate(0,69,21)"/><rect x="72" y="18" width="6" height="6" transform="rotate(0,75,21)"/><rect x="78" y="18" width="6" height="6" transform="rotate(0,81,21)"/><rect x="90" y="18" width="6" height="6" transform="rotate(0,93,21)"/><rect x="102" y="18" width="6" height="6" transform="rotate(0,105,21)"/><rect x="108" y="18" width="6" height="6" transform="rotate(0,111,21)"/><rect x="120" y="18" width="6" height="6" transform="rotate(0,123,21)"/><rect x="126" y="18" width="6" height="6" transform="rotate(0,129,21)"/><rect x="138" y="18" width="6" height="6" transform="rotate(0,141,21)"/><rect x="144" y="18" width="6" height="6" transform="rotate(0,147,21)"/><rect x="60" y="24" width="6" height="6" transform="rotate(0,63,27)"/><rect x="66" y="24" width="6" height="6" transform="rotate(0,69,27)"/><rect x="72" y="24" width="6" height="6" transform="rotate(0,75,27)"/><rect x="78" y="24" width="6" height="6" transform="rotate(0,81,27)"/><rect x="84" y="24" width="6" height="6" transform="rotate(0,87,27)"/><rect x="96" y="24" width="6" height="6" transform="rotate(0,99,27)"/><rect x="114" y="24" width="6" height="6" transform="rotate(0,117,27)"/><rect x="120" y="24" width="6" height="6" transform="rotate(0,123,27)"/><rect x="126" y="24" width="6" height="6" transform="rotate(0,129,27)"/><rect x="132" y="24" width="6" height="6" transform="rotate(0,135,27)"/><rect x="138" y="24" width="6" height="6" transform="rotate(0,141,27)"/><rect x="150" y="24" width="6" height="6" transform="rotate(0,153,27)"/><rect x="156" y="24" width="6" height="6" transform="rotate(0,159,27)"/><rect x="84" y="30" width="6" height="6" transform="rotate(0,87,33)"/><rect x="90" y="30" width="6" height="6" transform="rotate(0,93,33)"/><rect x="102" y="30" width="6" height="6" transform="rotate(0,105,33)"/><rect x="108" y="30" width="6" height="6" transform="rotate(0,111,33)"/><rect x="114" y="30" width="6" height="6" transform="rotate(0,117,33)"/><rect x="126" y="30" width="6" height="6" transform="rotate(0,129,33)"/><rect x="138" y="30" width="6" height="6" transform="rotate(0,141,33)"/><rect x="144" y="30" width="6" height="6" transform="rotate(0,147,33)"/><rect x="150" y="30" width="6" height="6" transform="rotate(0,153,33)"/><rect x="60" y="36" width="6" height="6" transform="rotate(0,63,39)"/><rect x="66" y="36" width="6" height="6" transform="rotate(0,69,39)"/><rect x="72" y="36" width="6" height="6" transform="rotate(0,75,39)"/><rect x="78" y="36" width="6" height="6" transform="rotate(0,81,39)"/><rect x="84" y="36" width="6" height="6" transform="rotate(0,87,39)"/><rect x="90" y="36" width="6" height="6" transform="rotate(0,93,39)"/><rect x="96" y="36" width="6" height="6" transform="rotate(0,99,39)"/><rect x="114" y="36" width="6" height="6" transform="rotate(0,117,39)"/><rect x="126" y="36" width="6" height="6" transform="rotate(0,129,39)"/><rect x="138" y="36" width="6" height="6" transform="rotate(0,141,39)"/><rect x="150" y="36" width="6" height="6" transform="rotate(0,153,39)"/><rect x="156" y="36" width="6" height="6" transform="rotate(0,159,39)"/><rect x="60" y="42" width="6" height="6" transform="rotate(0,63,45)"/><rect x="66" y="42" width="6" height="6" transform="rotate(0,69,45)"/><rect x="78" y="42" width="6" height="6" transform="rotate(0,81,45)"/><rect x="102" y="42" width="6" height="6" transform="rotate(0,105,45)"/><rect x="108" y="42" width="6" height="6" transform="rotate(0,111,45)"/><rect x="114" y="42" width="6" height="6" transform="rotate(0,117,45)"/><rect x="132" y="42" width="6" height="6" transform="rotate(0,135,45)"/><rect x="138" y="42" width="6" height="6" transform="rotate(0,141,45)"/><rect x="144" y="42" width="6" height="6" transform="rotate(0,147,45)"/><rect x="156" y="42" width="6" height="6" transform="rotate(0,159,45)"/><rect x="60" y="48" width="6" height="6" transform="rotate(0,63,51)"/><rect x="72" y="48" width="6" height="6" transform="rotate(0,75,51)"/><rect x="84" y="48" width="6" height="6" transform="rotate(0,87,51)"/><rect x="96" y="48" width="6" height="6" transform="rotate(0,99,51)"/><rect x="108" y="48" width="6" height="6" transform="rotate(0,111,51)"/><rect x="120" y="48" width="6" height="6" transform="rotate(0,123,51)"/><rect x="132" y="48" width="6" height="6" transform="rotate(0,135,51)"/><rect x="144" y="48" width="6" height="6" transform="rotate(0,147,51)"/><rect x="156" y="48" width="6" height="6" transform="rotate(0,159,51)"/><rect x="66" y="54" width="6" height="6" transform="rotate(0,69,57)"/><rect x="84" y="54" width="6" height="6" transform="rotate(0,87,57)"/><rect x="96" y="54" width="6" height="6" transform="rotate(0,99,57)"/><rect x="114" y="54" width="6" height="6" transform="rotate(0,117,57)"/><rect x="126" y="54" width="6" height="6" transform="rotate(0,129,57)"/><rect x="132" y="54" width="6" height="6" transform="rotate(0,135,57)"/><rect x="138" y="54" width="6" height="6" transform="rotate(0,141,57)"/><rect x="144" y="54" width="6" height="6" transform="rotate(0,147,57)"/><rect x="150" y="54" width="6" height="6" transform="rotate(0,153,57)"/><rect x="156" y="54" width="6" height="6" transform="rotate(0,159,57)"/><rect x="18" y="60" width="6" height="6" transform="rotate(0,21,63)"/><rect x="36" y="60" width="6" height="6" transform="rotate(0,39,63)"/><rect x="48" y="60" width="6" height="6" transform="rotate(0,51,63)"/><rect x="60" y="60" width="6" height="6" transform="rotate(0,63,63)"/><rect x="102" y="60" width="6" height="6" transform="rotate(0,105,63)"/><rect x="114" y="60" width="6" height="6" transform="rotate(0,117,63)"/><rect x="132" y="60" width="6" height="6" transform="rotate(0,135,63)"/><rect x="138" y="60" width="6" height="6" transform="rotate(0,141,63)"/><rect x="144" y="60" width="6" height="6" transform="rotate(0,147,63)"/><rect x="156" y="60" width="6" height="6" transform="rotate(0,159,63)"/><rect x="162" y="60" width="6" height="6" transform="rotate(0,165,63)"/><rect x="174" y="60" width="6" height="6" transform="rotate(0,177,63)"/><rect x="180" y="60" width="6" height="6" transform="rotate(0,183,63)"/><rect x="192" y="60" width="6" height="6" transform="rotate(0,195,63)"/><rect x="12" y="66" width="6" height="6" transform="rotate(0,15,69)"/><rect x="18" y="66" width="6" height="6" transform="rotate(0,21,69)"/><rect x="36" y="66" width="6" height="6" transform="rotate(0,39,69)"/><rect x="54" y="66" width="6" height="6" transform="rotate(0,57,69)"/><rect x="60" y="66" width="6" height="6" transform="rotate(0,63,69)"/><rect x="66" y="66" width="6" height="6" transform="rotate(0,69,69)"/><rect x="78" y="66" width="6" height="6" transform="rotate(0,81,69)"/><rect x="90" y="66" width="6" height="6" transform="rotate(0,93,69)"/><rect x="96" y="66" width="6" height="6" transform="rotate(0,99,69)"/><rect x="108" y="66" width="6" height="6" transform="rotate(0,111,69)"/><rect x="114" y="66" width="6" height="6" transform="rotate(0,117,69)"/><rect x="120" y="66" width="6" height="6" transform="rotate(0,123,69)"/><rect x="138" y="66" width="6" height="6" transform="rotate(0,141,69)"/><rect x="144" y="66" width="6" height="6" transform="rotate(0,147,69)"/><rect x="150" y="66" width="6" height="6" transform="rotate(0,153,69)"/><rect x="162" y="66" width="6" height="6" transform="rotate(0,165,69)"/><rect x="174" y="66" width="6" height="6" transform="rotate(0,177,69)"/><rect x="186" y="66" width="6" height="6" transform="rotate(0,189,69)"/><rect x="192" y="66" width="6" height="6" transform="rotate(0,195,69)"/><rect x="198" y="66" width="6" height="6" transform="rotate(0,201,69)"/><rect x="12" y="72" width="6" height="6" transform="rotate(0,15,75)"/><rect x="30" y="72" width="6" height="6" transform="rotate(0,33,75)"/><rect x="36" y="72" width="6" height="6" transform="rotate(0,39,75)"/><rect x="48" y="72" width="6" height="6" transform="rotate(0,51,75)"/><rect x="60" y="72" width="6" height="6" transform="rotate(0,63,75)"/><rect x="102" y="72" width="6" height="6" transform="rotate(0,105,75)"/><rect x="120" y="72" width="6" height="6" transform="rotate(0,123,75)"/><rect x="132" y="72" width="6" height="6" transform="rotate(0,135,75)"/><rect x="150" y="72" width="6" height="6" transform="rotate(0,153,75)"/><rect x="156" y="72" width="6" height="6" transform="rotate(0,159,75)"/><rect x="162" y="72" width="6" height="6" transform="rotate(0,165,75)"/><rect x="186" y="72" width="6" height="6" transform="rotate(0,189,75)"/><rect x="198" y="72" width="6" height="6" transform="rotate(0,201,75)"/><rect x="30" y="78" width="6" height="6" transform="rotate(0,33,81)"/><rect x="54" y="78" width="6" height="6" transform="rotate(0,57,81)"/><rect x="60" y="78" width="6" height="6" transform="rotate(0,63,81)"/><rect x="66" y="78" width="6" height="6" transform="rotate(0,69,81)"/><rect x="72" y="78" width="6" height="6" transform="rotate(0,75,81)"/><rect x="78" y="78" width="6" height="6" transform="rotate(0,81,81)"/><rect x="108" y="78" width="6" height="6" transform="rotate(0,111,81)"/><rect x="144" y="78" width="6" height="6" transform="rotate(0,147,81)"/><rect x="150" y="78" width="6" height="6" transform="rotate(0,153,81)"/><rect x="198" y="78" width="6" height="6" transform="rotate(0,201,81)"/><rect x="18" y="84" width="6" height="6" transform="rotate(0,21,87)"/><rect x="36" y="84" width="6" height="6" transform="rotate(0,39,87)"/><rect x="42" y="84" width="6" height="6" transform="rotate(0,45,87)"/><rect x="48" y="84" width="6" height="6" transform="rotate(0,51,87)"/><rect x="66" y="84" width="6" height="6" transform="rotate(0,69,87)"/><rect x="72" y="84" width="6" height="6" transform="rotate(0,75,87)"/><rect x="84" y="84" width="6" height="6" transform="rotate(0,87,87)"/><rect x="90" y="84" width="6" height="6" transform="rotate(0,93,87)"/><rect x="96" y="84" width="6" height="6" transform="rotate(0,99,87)"/><rect x="144" y="84" width="6" height="6" transform="rotate(0,147,87)"/><rect x="150" y="84" width="6" height="6" transform="rotate(0,153,87)"/><rect x="168" y="84" width="6" height="6" transform="rotate(0,171,87)"/><rect x="174" y="84" width="6" height="6" transform="rotate(0,177,87)"/><rect x="180" y="84" width="6" height="6" transform="rotate(0,183,87)"/><rect x="186" y="84" width="6" height="6" transform="rotate(0,189,87)"/><rect x="204" y="84" width="6" height="6" transform="rotate(0,207,87)"/><rect x="12" y="90" width="6" height="6" transform="rotate(0,15,93)"/><rect x="18" y="90" width="6" height="6" transform="rotate(0,21,93)"/><rect x="24" y="90" width="6" height="6" transform="rotate(0,27,93)"/><rect x="36" y="90" width="6" height="6" transform="rotate(0,39,93)"/><rect x="42" y="90" width="6" height="6" transform="rotate(0,45,93)"/><rect x="54" y="90" width="6" height="6" transform="rotate(0,57,93)"/><rect x="60" y="90" width="6" height="6" transform="rotate(0,63,93)"/><rect x="90" y="90" width="6" height="6" transform="rotate(0,93,93)"/><rect x="120" y="90" width="6" height="6" transform="rotate(0,123,93)"/><rect x="126" y="90" width="6" height="6" transform="rotate(0,129,93)"/><rect x="132" y="90" width="6" height="6" transform="rotate(0,135,93)"/><rect x="150" y="90" width="6" height="6" transform="rotate(0,153,93)"/><rect x="162" y="90" width="6" height="6" transform="rotate(0,165,93)"/><rect x="174" y="90" width="6" height="6" transform="rotate(0,177,93)"/><rect x="192" y="90" width="6" height="6" transform="rotate(0,195,93)"/><rect x="24" y="96" width="6" height="6" transform="rotate(0,27,99)"/><rect x="30" y="96" width="6" height="6" transform="rotate(0,33,99)"/><rect x="42" y="96" width="6" height="6" transform="rotate(0,45,99)"/><rect x="48" y="96" width="6" height="6" transform="rotate(0,51,99)"/><rect x="54" y="96" width="6" height="6" transform="rotate(0,57,99)"/><rect x="60" y="96" width="6" height="6" transform="rotate(0,63,99)"/><rect x="90" y="96" width="6" height="6" transform="rotate(0,93,99)"/><rect x="108" y="96" width="6" height="6" transform="rotate(0,111,99)"/><rect x="114" y="96" width="6" height="6" transform="rotate(0,117,99)"/><rect x="132" y="96" width="6" height="6" transform="rotate(0,135,99)"/><rect x="138" y="96" width="6" height="6" transform="rotate(0,141,99)"/><rect x="150" y="96" width="6" height="6" transform="rotate(0,153,99)"/><rect x="156" y="96" width="6" height="6" transform="rotate(0,159,99)"/><rect x="162" y="96" width="6" height="6" transform="rotate(0,165,99)"/><rect x="180" y="96" width="6" height="6" transform="rotate(0,183,99)"/><rect x="198" y="96" width="6" height="6" transform="rotate(0,201,99)"/><rect x="24" y="102" width="6" height="6" transform="rotate(0,27,105)"/><rect x="42" y="102" width="6" height="6" transform="rotate(0,45,105)"/><rect x="60" y="102" width="6" height="6" transform="rotate(0,63,105)"/><rect x="84" y="102" width="6" height="6" transform="rotate(0,87,105)"/><rect x="96" y="102" width="6" height="6" transform="rotate(0,99,105)"/><rect x="108" y="102" width="6" height="6" transform="rotate(0,111,105)"/><rect x="114" y="102" width="6" height="6" transform="rotate(0,117,105)"/><rect x="138" y="102" width="6" height="6" transform="rotate(0,141,105)"/><rect x="144" y="102" width="6" height="6" transform="rotate(0,147,105)"/><rect x="150" y="102" width="6" height="6" transform="rotate(0,153,105)"/><rect x="156" y="102" width="6" height="6" transform="rotate(0,159,105)"/><rect x="162" y="102" width="6" height="6" transform="rotate(0,165,105)"/><rect x="168" y="102" width="6" height="6" transform="rotate(0,171,105)"/><rect x="174" y="102" width="6" height="6" transform="rotate(0,177,105)"/><rect x="12" y="108" width="6" height="6" transform="rotate(0,15,111)"/><rect x="18" y="108" width="6" height="6" transform="rotate(0,21,111)"/><rect x="24" y="108" width="6" height="6" transform="rotate(0,27,111)"/><rect x="30" y="108" width="6" height="6" transform="rotate(0,33,111)"/><rect x="36" y="108" width="6" height="6" transform="rotate(0,39,111)"/><rect x="42" y="108" width="6" height="6" transform="rotate(0,45,111)"/><rect x="48" y="108" width="6" height="6" transform="rotate(0,51,111)"/><rect x="60" y="108" width="6" height="6" transform="rotate(0,63,111)"/><rect x="90" y="108" width="6" height="6" transform="rotate(0,93,111)"/><rect x="96" y="108" width="6" height="6" transform="rotate(0,99,111)"/><rect x="102" y="108" width="6" height="6" transform="rotate(0,105,111)"/><rect x="120" y="108" width="6" height="6" transform="rotate(0,123,111)"/><rect x="126" y="108" width="6" height="6" transform="rotate(0,129,111)"/><rect x="132" y="108" width="6" height="6" transform="rotate(0,135,111)"/><rect x="138" y="108" width="6" height="6" transform="rotate(0,141,111)"/><rect x="144" y="108" width="6" height="6" transform="rotate(0,147,111)"/><rect x="156" y="108" width="6" height="6" transform="rotate(0,159,111)"/><rect x="168" y="108" width="6" height="6" transform="rotate(0,171,111)"/><rect x="180" y="108" width="6" height="6" transform="rotate(0,183,111)"/><rect x="186" y="108" width="6" height="6" transform="rotate(0,189,111)"/><rect x="198" y="108" width="6" height="6" transform="rotate(0,201,111)"/><rect x="12" y="114" width="6" height="6" transform="rotate(0,15,117)"/><rect x="18" y="114" width="6" height="6" transform="rotate(0,21,117)"/><rect x="24" y="114" width="6" height="6" transform="rotate(0,27,117)"/><rect x="30" y="114" width="6" height="6" transform="rotate(0,33,117)"/><rect x="36" y="114" width="6" height="6" transform="rotate(0,39,117)"/><rect x="42" y="114" width="6" height="6" transform="rotate(0,45,117)"/><rect x="54" y="114" width="6" height="6" transform="rotate(0,57,117)"/><rect x="60" y="114" width="6" height="6" transform="rotate(0,63,117)"/><rect x="66" y="114" width="6" height="6" transform="rotate(0,69,117)"/><rect x="72" y="114" width="6" height="6" transform="rotate(0,75,117)"/><rect x="78" y="114" width="6" height="6" transform="rotate(0,81,117)"/><rect x="90" y="114" width="6" height="6" transform="rotate(0,93,117)"/><rect x="96" y="114" width="6" height="6" transform="rotate(0,99,117)"/><rect x="108" y="114" width="6" height="6" transform="rotate(0,111,117)"/><rect x="114" y="114" width="6" height="6" transform="rotate(0,117,117)"/><rect x="120" y="114" width="6" height="6" transform="rotate(0,123,117)"/><rect x="144" y="114" width="6" height="6" transform="rotate(0,147,117)"/><rect x="150" y="114" width="6" height="6" transform="rotate(0,153,117)"/><rect x="186" y="114" width="6" height="6" transform="rotate(0,189,117)"/><rect x="192" y="114" width="6" height="6" transform="rotate(0,195,117)"/><rect x="198" y="114" width="6" height="6" transform="rotate(0,201,117)"/><rect x="12" y="120" width="6" height="6" transform="rotate(0,15,123)"/><rect x="18" y="120" width="6" height="6" transform="rotate(0,21,123)"/><rect x="30" y="120" width="6" height="6" transform="rotate(0,33,123)"/><rect x="42" y="120" width="6" height="6" transform="rotate(0,45,123)"/><rect x="48" y="120" width="6" height="6" transform="rotate(0,51,123)"/><rect x="54" y="120" width="6" height="6" transform="rotate(0,57,123)"/><rect x="60" y="120" width="6" height="6" transform="rotate(0,63,123)"/><rect x="78" y="120" width="6" height="6" transform="rotate(0,81,123)"/><rect x="90" y="120" width="6" height="6" transform="rotate(0,93,123)"/><rect x="96" y="120" width="6" height="6" transform="rotate(0,99,123)"/><rect x="114" y="120" width="6" height="6" transform="rotate(0,117,123)"/><rect x="120" y="120" width="6" height="6" transform="rotate(0,123,123)"/><rect x="138" y="120" width="6" height="6" transform="rotate(0,141,123)"/><rect x="144" y="120" width="6" height="6" transform="rotate(0,147,123)"/><rect x="150" y="120" width="6" height="6" transform="rotate(0,153,123)"/><rect x="162" y="120" width="6" height="6" transform="rotate(0,165,123)"/><rect x="186" y="120" width="6" height="6" transform="rotate(0,189,123)"/><rect x="198" y="120" width="6" height="6" transform="rotate(0,201,123)"/><rect x="12" y="126" width="6" height="6" transform="rotate(0,15,129)"/><rect x="24" y="126" width="6" height="6" transform="rotate(0,27,129)"/><rect x="30" y="126" width="6" height="6" transform="rotate(0,33,129)"/><rect x="54" y="126" width="6" height="6" transform="rotate(0,57,129)"/><rect x="60" y="126" width="6" height="6" transform="rotate(0,63,129)"/><rect x="66" y="126" width="6" height="6" transform="rotate(0,69,129)"/><rect x="90" y="126" width="6" height="6" transform="rotate(0,93,129)"/><rect x="96" y="126" width="6" height="6" transform="rotate(0,99,129)"/><rect x="132" y="126" width="6" height="6" transform="rotate(0,135,129)"/><rect x="138" y="126" width="6" height="6" transform="rotate(0,141,129)"/><rect x="150" y="126" width="6" height="6" transform="rotate(0,153,129)"/><rect x="156" y="126" width="6" height="6" transform="rotate(0,159,129)"/><rect x="162" y="126" width="6" height="6" transform="rotate(0,165,129)"/><rect x="204" y="126" width="6" height="6" transform="rotate(0,207,129)"/><rect x="12" y="132" width="6" height="6" transform="rotate(0,15,135)"/><rect x="18" y="132" width="6" height="6" transform="rotate(0,21,135)"/><rect x="48" y="132" width="6" height="6" transform="rotate(0,51,135)"/><rect x="54" y="132" width="6" height="6" transform="rotate(0,57,135)"/><rect x="72" y="132" width="6" height="6" transform="rotate(0,75,135)"/><rect x="84" y="132" width="6" height="6" transform="rotate(0,87,135)"/><rect x="90" y="132" width="6" height="6" transform="rotate(0,93,135)"/><rect x="108" y="132" width="6" height="6" transform="rotate(0,111,135)"/><rect x="126" y="132" width="6" height="6" transform="rotate(0,129,135)"/><rect x="132" y="132" width="6" height="6" transform="rotate(0,135,135)"/><rect x="156" y="132" width="6" height="6" transform="rotate(0,159,135)"/><rect x="162" y="132" width="6" height="6" transform="rotate(0,165,135)"/><rect x="168" y="132" width="6" height="6" transform="rotate(0,171,135)"/><rect x="180" y="132" width="6" height="6" transform="rotate(0,183,135)"/><rect x="186" y="132" width="6" height="6" transform="rotate(0,189,135)"/><rect x="198" y="132" width="6" height="6" transform="rotate(0,201,135)"/><rect x="204" y="132" width="6" height="6" transform="rotate(0,207,135)"/><rect x="12" y="138" width="6" height="6" transform="rotate(0,15,141)"/><rect x="42" y="138" width="6" height="6" transform="rotate(0,45,141)"/><rect x="54" y="138" width="6" height="6" transform="rotate(0,57,141)"/><rect x="60" y="138" width="6" height="6" transform="rotate(0,63,141)"/><rect x="66" y="138" width="6" height="6" transform="rotate(0,69,141)"/><rect x="72" y="138" width="6" height="6" transform="rotate(0,75,141)"/><rect x="84" y="138" width="6" height="6" transform="rotate(0,87,141)"/><rect x="102" y="138" width="6" height="6" transform="rotate(0,105,141)"/><rect x="108" y="138" width="6" height="6" transform="rotate(0,111,141)"/><rect x="114" y="138" width="6" height="6" transform="rotate(0,117,141)"/><rect x="126" y="138" width="6" height="6" transform="rotate(0,129,141)"/><rect x="144" y="138" width="6" height="6" transform="rotate(0,147,141)"/><rect x="150" y="138" width="6" height="6" transform="rotate(0,153,141)"/><rect x="162" y="138" width="6" height="6" transform="rotate(0,165,141)"/><rect x="174" y="138" width="6" height="6" transform="rotate(0,177,141)"/><rect x="186" y="138" width="6" height="6" transform="rotate(0,189,141)"/><rect x="192" y="138" width="6" height="6" transform="rotate(0,195,141)"/><rect x="198" y="138" width="6" height="6" transform="rotate(0,201,141)"/><rect x="36" y="144" width="6" height="6" transform="rotate(0,39,147)"/><rect x="48" y="144" width="6" height="6" transform="rotate(0,51,147)"/><rect x="90" y="144" width="6" height="6" transform="rotate(0,93,147)"/><rect x="108" y="144" width="6" height="6" transform="rotate(0,111,147)"/><rect x="120" y="144" width="6" height="6" transform="rotate(0,123,147)"/><rect x="126" y="144" width="6" height="6" transform="rotate(0,129,147)"/><rect x="144" y="144" width="6" height="6" transform="rotate(0,147,147)"/><rect x="150" y="144" width="6" height="6" transform="rotate(0,153,147)"/><rect x="186" y="144" width="6" height="6" transform="rotate(0,189,147)"/><rect x="198" y="144" width="6" height="6" transform="rotate(0,201,147)"/><rect x="24" y="150" width="6" height="6" transform="rotate(0,27,153)"/><rect x="36" y="150" width="6" height="6" transform="rotate(0,39,153)"/><rect x="54" y="150" width="6" height="6" transform="rotate(0,57,153)"/><rect x="66" y="150" width="6" height="6" transform="rotate(0,69,153)"/><rect x="78" y="150" width="6" height="6" transform="rotate(0,81,153)"/><rect x="84" y="150" width="6" height="6" transform="rotate(0,87,153)"/><rect x="96" y="150" width="6" height="6" transform="rotate(0,99,153)"/><rect x="102" y="150" width="6" height="6" transform="rotate(0,105,153)"/><rect x="114" y="150" width="6" height="6" transform="rotate(0,117,153)"/><rect x="126" y="150" width="6" height="6" transform="rotate(0,129,153)"/><rect x="132" y="150" width="6" height="6" transform="rotate(0,135,153)"/><rect x="138" y="150" width="6" height="6" transform="rotate(0,141,153)"/><rect x="156" y="150" width="6" height="6" transform="rotate(0,159,153)"/><rect x="168" y="150" width="6" height="6" transform="rotate(0,171,153)"/><rect x="174" y="150" width="6" height="6" transform="rotate(0,177,153)"/><rect x="180" y="150" width="6" height="6" transform="rotate(0,183,153)"/><rect x="186" y="150" width="6" height="6" transform="rotate(0,189,153)"/><rect x="198" y="150" width="6" height="6" transform="rotate(0,201,153)"/><rect x="12" y="156" width="6" height="6" transform="rotate(0,15,159)"/><rect x="18" y="156" width="6" height="6" transform="rotate(0,21,159)"/><rect x="24" y="156" width="6" height="6" transform="rotate(0,27,159)"/><rect x="30" y="156" width="6" height="6" transform="rotate(0,33,159)"/><rect x="48" y="156" width="6" height="6" transform="rotate(0,51,159)"/><rect x="60" y="156" width="6" height="6" transform="rotate(0,63,159)"/><rect x="72" y="156" width="6" height="6" transform="rotate(0,75,159)"/><rect x="84" y="156" width="6" height="6" transform="rotate(0,87,159)"/><rect x="90" y="156" width="6" height="6" transform="rotate(0,93,159)"/><rect x="96" y="156" width="6" height="6" transform="rotate(0,99,159)"/><rect x="102" y="156" width="6" height="6" transform="rotate(0,105,159)"/><rect x="108" y="156" width="6" height="6" transform="rotate(0,111,159)"/><rect x="132" y="156" width="6" height="6" transform="rotate(0,135,159)"/><rect x="138" y="156" width="6" height="6" transform="rotate(0,141,159)"/><rect x="144" y="156" width="6" height="6" transform="rotate(0,147,159)"/><rect x="150" y="156" width="6" height="6" transform="rotate(0,153,159)"/><rect x="156" y="156" width="6" height="6" transform="rotate(0,159,159)"/><rect x="162" y="156" width="6" height="6" transform="rotate(0,165,159)"/><rect x="168" y="156" width="6" height="6" transform="rotate(0,171,159)"/><rect x="174" y="156" width="6" height="6" transform="rotate(0,177,159)"/><rect x="180" y="156" width="6" height="6" transform="rotate(0,183,159)"/><rect x="204" y="156" width="6" height="6" transform="rotate(0,207,159)"/><rect x="60" y="162" width="6" height="6" transform="rotate(0,63,165)"/><rect x="66" y="162" width="6" height="6" transform="rotate(0,69,165)"/><rect x="78" y="162" width="6" height="6" transform="rotate(0,81,165)"/><rect x="84" y="162" width="6" height="6" transform="rotate(0,87,165)"/><rect x="108" y="162" width="6" height="6" transform="rotate(0,111,165)"/><rect x="114" y="162" width="6" height="6" transform="rotate(0,117,165)"/><rect x="120" y="162" width="6" height="6" transform="rotate(0,123,165)"/><rect x="138" y="162" width="6" height="6" transform="rotate(0,141,165)"/><rect x="144" y="162" width="6" height="6" transform="rotate(0,147,165)"/><rect x="156" y="162" width="6" height="6" transform="rotate(0,159,165)"/><rect x="180" y="162" width="6" height="6" transform="rotate(0,183,165)"/><rect x="192" y="162" width="6" height="6" transform="rotate(0,195,165)"/><rect x="66" y="168" width="6" height="6" transform="rotate(0,69,171)"/><rect x="96" y="168" width="6" height="6" transform="rotate(0,99,171)"/><rect x="114" y="168" width="6" height="6" transform="rotate(0,117,171)"/><rect x="132" y="168" width="6" height="6" transform="rotate(0,135,171)"/><rect x="156" y="168" width="6" height="6" transform="rotate(0,159,171)"/><rect x="168" y="168" width="6" height="6" transform="rotate(0,171,171)"/><rect x="180" y="168" width="6" height="6" transform="rotate(0,183,171)"/><rect x="186" y="168" width="6" height="6" transform="rotate(0,189,171)"/><rect x="198" y="168" width="6" height="6" transform="rotate(0,201,171)"/><rect x="66" y="174" width="6" height="6" transform="rotate(0,69,177)"/><rect x="72" y="174" width="6" height="6" transform="rotate(0,75,177)"/><rect x="78" y="174" width="6" height="6" transform="rotate(0,81,177)"/><rect x="90" y="174" width="6" height="6" transform="rotate(0,93,177)"/><rect x="102" y="174" width="6" height="6" transform="rotate(0,105,177)"/><rect x="114" y="174" width="6" height="6" transform="rotate(0,117,177)"/><rect x="120" y="174" width="6" height="6" transform="rotate(0,123,177)"/><rect x="132" y="174" width="6" height="6" transform="rotate(0,135,177)"/><rect x="144" y="174" width="6" height="6" transform="rotate(0,147,177)"/><rect x="156" y="174" width="6" height="6" transform="rotate(0,159,177)"/><rect x="180" y="174" width="6" height="6" transform="rotate(0,183,177)"/><rect x="186" y="174" width="6" height="6" transform="rotate(0,189,177)"/><rect x="198" y="174" width="6" height="6" transform="rotate(0,201,177)"/><rect x="204" y="174" width="6" height="6" transform="rotate(0,207,177)"/><rect x="60" y="180" width="6" height="6" transform="rotate(0,63,183)"/><rect x="66" y="180" width="6" height="6" transform="rotate(0,69,183)"/><rect x="90" y="180" width="6" height="6" transform="rotate(0,93,183)"/><rect x="96" y="180" width="6" height="6" transform="rotate(0,99,183)"/><rect x="102" y="180" width="6" height="6" transform="rotate(0,105,183)"/><rect x="108" y="180" width="6" height="6" transform="rotate(0,111,183)"/><rect x="114" y="180" width="6" height="6" transform="rotate(0,117,183)"/><rect x="120" y="180" width="6" height="6" transform="rotate(0,123,183)"/><rect x="126" y="180" width="6" height="6" transform="rotate(0,129,183)"/><rect x="144" y="180" width="6" height="6" transform="rotate(0,147,183)"/><rect x="156" y="180" width="6" height="6" transform="rotate(0,159,183)"/><rect x="162" y="180" width="6" height="6" transform="rotate(0,165,183)"/><rect x="168" y="180" width="6" height="6" transform="rotate(0,171,183)"/><rect x="174" y="180" width="6" height="6" transform="rotate(0,177,183)"/><rect x="180" y="180" width="6" height="6" transform="rotate(0,183,183)"/><rect x="186" y="180" width="6" height="6" transform="rotate(0,189,183)"/><rect x="204" y="180" width="6" height="6" transform="rotate(0,207,183)"/><rect x="66" y="186" width="6" height="6" transform="rotate(0,69,189)"/><rect x="72" y="186" width="6" height="6" transform="rotate(0,75,189)"/><rect x="78" y="186" width="6" height="6" transform="rotate(0,81,189)"/><rect x="84" y="186" width="6" height="6" transform="rotate(0,87,189)"/><rect x="90" y="186" width="6" height="6" transform="rotate(0,93,189)"/><rect x="96" y="186" width="6" height="6" transform="rotate(0,99,189)"/><rect x="102" y="186" width="6" height="6" transform="rotate(0,105,189)"/><rect x="120" y="186" width="6" height="6" transform="rotate(0,123,189)"/><rect x="126" y="186" width="6" height="6" transform="rotate(0,129,189)"/><rect x="132" y="186" width="6" height="6" transform="rotate(0,135,189)"/><rect x="150" y="186" width="6" height="6" transform="rotate(0,153,189)"/><rect x="156" y="186" width="6" height="6" transform="rotate(0,159,189)"/><rect x="168" y="186" width="6" height="6" transform="rotate(0,171,189)"/><rect x="180" y="186" width="6" height="6" transform="rotate(0,183,189)"/><rect x="186" y="186" width="6" height="6" transform="rotate(0,189,189)"/><rect x="198" y="186" width="6" height="6" transform="rotate(0,201,189)"/><rect x="66" y="192" width="6" height="6" transform="rotate(0,69,195)"/><rect x="72" y="192" width="6" height="6" transform="rotate(0,75,195)"/><rect x="96" y="192" width="6" height="6" transform="rotate(0,99,195)"/><rect x="102" y="192" width="6" height="6" transform="rotate(0,105,195)"/><rect x="114" y="192" width="6" height="6" transform="rotate(0,117,195)"/><rect x="132" y="192" width="6" height="6" transform="rotate(0,135,195)"/><rect x="138" y="192" width="6" height="6" transform="rotate(0,141,195)"/><rect x="150" y="192" width="6" height="6" transform="rotate(0,153,195)"/><rect x="168" y="192" width="6" height="6" transform="rotate(0,171,195)"/><rect x="174" y="192" width="6" height="6" transform="rotate(0,177,195)"/><rect x="180" y="192" width="6" height="6" transform="rotate(0,183,195)"/><rect x="60" y="198" width="6" height="6" transform="rotate(0,63,201)"/><rect x="66" y="198" width="6" height="6" transform="rotate(0,69,201)"/><rect x="72" y="198" width="6" height="6" transform="rotate(0,75,201)"/><rect x="78" y="198" width="6" height="6" transform="rotate(0,81,201)"/><rect x="84" y="198" width="6" height="6" transform="rotate(0,87,201)"/><rect x="90" y="198" width="6" height="6" transform="rotate(0,93,201)"/><rect x="114" y="198" width="6" height="6" transform="rotate(0,117,201)"/><rect x="120" y="198" width="6" height="6" transform="rotate(0,123,201)"/><rect x="138" y="198" width="6" height="6" transform="rotate(0,141,201)"/><rect x="144" y="198" width="6" height="6" transform="rotate(0,147,201)"/><rect x="150" y="198" width="6" height="6" transform="rotate(0,153,201)"/><rect x="156" y="198" width="6" height="6" transform="rotate(0,159,201)"/><rect x="162" y="198" width="6" height="6" transform="rotate(0,165,201)"/><rect x="168" y="198" width="6" height="6" transform="rotate(0,171,201)"/><rect x="174" y="198" width="6" height="6" transform="rotate(0,177,201)"/><rect x="72" y="204" width="6" height="6" transform="rotate(0,75,207)"/><rect x="84" y="204" width="6" height="6" transform="rotate(0,87,207)"/><rect x="90" y="204" width="6" height="6" transform="rotate(0,93,207)"/><rect x="96" y="204" width="6" height="6" transform="rotate(0,99,207)"/><rect x="102" y="204" width="6" height="6" transform="rotate(0,105,207)"/><rect x="108" y="204" width="6" height="6" transform="rotate(0,111,207)"/><rect x="114" y="204" width="6" height="6" transform="rotate(0,117,207)"/><rect x="120" y="204" width="6" height="6" transform="rotate(0,123,207)"/><rect x="126" y="204" width="6" height="6" transform="rotate(0,129,207)"/><rect x="138" y="204" width="6" height="6" transform="rotate(0,141,207)"/><rect x="144" y="204" width="6" height="6" transform="rotate(0,147,207)"/><rect x="150" y="204" width="6" height="6" transform="rotate(0,153,207)"/><rect x="156" y="204" width="6" height="6" transform="rotate(0,159,207)"/><rect x="162" y="204" width="6" height="6" transform="rotate(0,165,207)"/><rect x="180" y="204" width="6" height="6" transform="rotate(0,183,207)"/><rect x="186" y="204" width="6" height="6" transform="rotate(0,189,207)"/><rect x="204" y="204" width="6" height="6" transform="rotate(0,207,207)"/></g></svg>